<?xml version="1.0" encoding="utf-8"?>
<!-- Generator: Adobe Illustrator 16.0.0, SVG Export Plug-In . SVG Version: 6.00 Build 0)  -->
<!DOCTYPE svg PUBLIC "-//W3C//DTD SVG 1.1//EN" "http://www.w3.org/Graphics/SVG/1.1/DTD/svg11.dtd">
<svg version="1.1" id="BUSH" xmlns="http://www.w3.org/2000/svg" xmlns:xlink="http://www.w3.org/1999/xlink" x="0px" y="0px"
	 width="40px" height="40px" viewBox="0 0 40 40" enable-background="new 0 0 40 40" xml:space="preserve">
<path fill="#2E8B57" stroke="#2E8B57" stroke-miterlimit="10" d="M32.561,22.219c0.349-0.668,0.564-1.414,0.564-2.22
	c0-2.655-2.15-4.808-4.807-4.812c-1.109-2.272-3.432-3.844-6.131-3.844c-2.061,0-3.903,0.914-5.155,2.355
	c-0.75-0.264-1.553-0.415-2.393-0.415c-3.979,0-7.207,3.226-7.207,7.206c0,0.41,0.043,0.809,0.108,1.199
	C6.037,22.471,5,24.024,5,25.836c0,1.063,0.353,2.039,0.942,2.819h28.269C34.709,27.943,35,27.078,35,26.137
	C35,24.417,34.005,22.936,32.561,22.219z"/>
</svg>
