<?xml version="1.0" encoding="utf-8"?>
<!-- Generator: Adobe Illustrator 16.0.0, SVG Export Plug-In . SVG Version: 6.00 Build 0)  -->
<!DOCTYPE svg PUBLIC "-//W3C//DTD SVG 1.1//EN" "http://www.w3.org/Graphics/SVG/1.1/DTD/svg11.dtd">
<svg version="1.1" id="TREE" xmlns="http://www.w3.org/2000/svg" xmlns:xlink="http://www.w3.org/1999/xlink" x="0px" y="0px"
	 width="40px" height="80px" viewBox="0 0 40 80" enable-background="new 0 0 40 80" xml:space="preserve">
<path fill="#268C43" d="M36.09,32.44c0,12.93-6.07,17.81-13.96,18.57c-0.76,0.08-1.54,0.11-2.33,0.11c-0.86,0-1.71-0.04-2.53-0.13
	C9.48,50.17,3.51,45.26,3.51,32.44c0-14.19,16.29-21.69,16.29-21.69S36.09,18.25,36.09,32.44z"/>
<polygon fill="#A1532D" points="30.602,37.625 22.5,40 23.125,22.875 17.672,37.67 9,33 17.5,44 16.5,75 23.5,75 21.872,46.401 "/>
<path opacity="0.1" d="M36.09,32.43c0,1.24-0.06,2.41-0.17,3.511C34.19,23.37,19.8,16.75,19.8,16.75S5.4,23.38,3.68,35.96
	c-0.109-1.1-0.17-2.28-0.17-3.53c0-14.18,16.29-21.68,16.29-21.68S36.09,18.25,36.09,32.43z"/>
</svg>
