<?xml version="1.0" encoding="utf-8"?>
<!-- Generator: Adobe Illustrator 16.0.0, SVG Export Plug-In . SVG Version: 6.00 Build 0)  -->
<!DOCTYPE svg PUBLIC "-//W3C//DTD SVG 1.1//EN" "http://www.w3.org/Graphics/SVG/1.1/DTD/svg11.dtd">
<svg version="1.1" id="FLOWER" xmlns="http://www.w3.org/2000/svg" xmlns:xlink="http://www.w3.org/1999/xlink" x="0px" y="0px"
	 width="40px" height="40px" viewBox="0 0 40 40" enable-background="new 0 0 40 40" xml:space="preserve">
<path fill="#08652E" d="M20,28.231L20,28.231c-0.247-2.14-0.819-7.091-0.161-8.612c0.057-0.131,0.265-0.131,0.321,0
	C20.819,21.143,20.248,26.094,20,28.231z"/>
<path fill="#F0E68C" d="M18.861,11.772c-0.285,0.044-0.49,0.383-0.582,0.866c-0.397-0.268-0.773-0.361-1.004-0.196
	c-0.407,0.292-0.216,1.254,0.424,2.148c0.642,0.894,1.491,1.382,1.896,1.092c0.012-0.008,0.017-0.021,0.028-0.03
	c0.397-0.223,0.595-1.077,0.443-2.051C19.897,12.514,19.356,11.694,18.861,11.772z"/>
<path fill="#F0E68C" d="M24.988,15.62c-0.045-0.284-0.383-0.489-0.866-0.582c0.269-0.397,0.362-0.773,0.197-1.005
	c-0.292-0.407-1.253-0.216-2.149,0.424c-0.895,0.642-1.383,1.492-1.09,1.898c0.006,0.01,0.021,0.018,0.029,0.027
	c0.222,0.396,1.078,0.595,2.048,0.442C24.246,16.654,25.066,16.115,24.988,15.62z"/>
<path fill="#F0E68C" d="M15.012,17.898c0.045,0.284,0.383,0.49,0.868,0.583c-0.269,0.397-0.362,0.773-0.196,1.004
	c0.291,0.405,1.252,0.215,2.145-0.423c0.895-0.643,1.384-1.493,1.092-1.898c-0.006-0.012-0.019-0.017-0.028-0.027
	c-0.223-0.397-1.077-0.594-2.051-0.442C15.755,16.864,14.935,17.404,15.012,17.898z"/>
<path fill="#F0E68C" d="M21.139,21.747c0.285-0.046,0.491-0.386,0.582-0.866c0.399,0.267,0.773,0.357,1.006,0.193
	c0.408-0.289,0.217-1.25-0.424-2.146c-0.642-0.893-1.492-1.383-1.901-1.091c-0.01,0.008-0.015,0.021-0.025,0.03
	c-0.398,0.222-0.594,1.077-0.443,2.049C20.105,21.006,20.644,21.822,21.139,21.747z"/>
<path fill="#EEE8AA" d="M22.75,12.538c-0.234-0.169-0.619-0.075-1.026,0.202c-0.093-0.471-0.291-0.803-0.572-0.849
	c-0.493-0.082-1.041,0.732-1.219,1.817c-0.179,1.086,0.075,2.033,0.568,2.115c0.015,0.001,0.027-0.003,0.04-0.002
	c0.439,0.124,1.184-0.341,1.766-1.138C22.954,13.794,23.152,12.834,22.75,12.538z"/>
<path fill="#EEE8AA" d="M24.205,19.249c0.17-0.233,0.074-0.618-0.202-1.024c0.473-0.092,0.804-0.29,0.851-0.571
	c0.079-0.496-0.732-1.041-1.819-1.219S21,16.51,20.92,17.003c-0.004,0.013,0.003,0.026,0.002,0.04
	c-0.123,0.44,0.34,1.184,1.138,1.764C22.948,19.457,23.908,19.654,24.205,19.249z"/>
<path fill="#EEE8AA" d="M17.249,21.054c0.233,0.169,0.619,0.075,1.025-0.2c0.091,0.47,0.29,0.803,0.574,0.846
	c0.493,0.083,1.038-0.732,1.216-1.819c0.179-1.086-0.074-2.031-0.569-2.113c-0.013-0.002-0.027,0.004-0.04,0.001
	c-0.439-0.124-1.183,0.341-1.765,1.138C17.042,19.798,16.845,20.758,17.249,21.054z"/>
<path fill="#EEE8AA" d="M15.705,14.133c-0.169,0.232-0.074,0.617,0.203,1.023c-0.471,0.092-0.804,0.291-0.849,0.573
	c-0.081,0.495,0.732,1.041,1.819,1.219s2.033-0.077,2.113-0.569c0.003-0.014-0.002-0.025-0.001-0.041
	c0.123-0.438-0.342-1.182-1.138-1.764C16.961,13.926,16.001,13.728,15.705,14.133z"/>
<circle fill="#FF8C00" cx="20" cy="16.759" r="1.619"/>
<path fill="#08652E" d="M20.021,23.82c-1.268-1.199-4.645-2.266-4.645-2.266s2.905,4.24,4.365,4.025
	c0.086-0.014,0.184-0.074,0.281-0.161c0.098,0.087,0.196,0.147,0.281,0.161c1.46,0.215,4.366-4.025,4.366-4.025
	S21.291,22.621,20.021,23.82z"/>
</svg>
