<?xml version="1.0" encoding="utf-8"?>
<!-- Generator: Adobe Illustrator 16.0.0, SVG Export Plug-In . SVG Version: 6.00 Build 0)  -->
<!DOCTYPE svg PUBLIC "-//W3C//DTD SVG 1.1//EN" "http://www.w3.org/Graphics/SVG/1.1/DTD/svg11.dtd">
<svg version="1.1" id="TREE" xmlns="http://www.w3.org/2000/svg" xmlns:xlink="http://www.w3.org/1999/xlink" x="0px" y="0px"
	 width="40px" height="80px" viewBox="0 0 40 80" enable-background="new 0 0 40 80" xml:space="preserve">
<polygon fill="#A0522D" points="23.5,75 16.5,75 18.5,44.25 21.5,44.25 "/>
<path fill="#268C43" d="M36,42.502c0,12.63-7.721,18.87-16,18.87c-6.05,0-11.8-3.329-14.45-10.05C4.561,48.843,4,45.902,4,42.502
	c0-12.64,7.721-31.88,16-31.88c2.4,0,4.75,1.61,6.87,4.21C32.1,21.203,36,33.522,36,42.502z"/>
<path opacity="0.1" enable-background="new    " d="M36,42.502c0,12.63-7.721,18.87-16,18.87v-50.75c2.41,0,4.76,1.61,6.88,4.21
	C32.1,21.202,36,33.521,36,42.502z"/>
</svg>
